<?xml version="1.0" encoding="UTF-8"?>
<svg width="264.78mm" height="181.7mm" version="1.1" viewBox="0 0 264.78 181.7" xmlns="http://www.w3.org/2000/svg" xmlns:cc="http://creativecommons.org/ns#" xmlns:dc="http://purl.org/dc/elements/1.1/" xmlns:rdf="http://www.w3.org/1999/02/22-rdf-syntax-ns#">
 <metadata>
  <rdf:RDF>
   <cc:Work rdf:about="">
    <dc:format>image/svg+xml</dc:format>
    <dc:type rdf:resource="http://purl.org/dc/dcmitype/StillImage"/>
    <dc:title/>
   </cc:Work>
  </rdf:RDF>
 </metadata>
 <g transform="translate(-4.0582 -19.177)">
  <rect x="4.0582" y="19.177" width="264.78" height="181.7"/>
  <rect x="24.19" y="57.301" width="12.851" height="12.851" style="fill:none;stroke-width:.6;stroke:#fff"/>
  <text transform="translate(-8.8903 -44.473)" style="fill:#ffffff;font-family:sans-serif;font-size:9.1722px;line-height:1.25;shape-inside:url(#rect14);text-align:center;white-space:pre" xml:space="preserve"><tspan x="36.64008" y="111.53411"><tspan style="fill:#ffffff;font-size:9.1722px">4</tspan></tspan></text>
  <rect x="37.042" y="57.301" width="12.851" height="12.851" style="fill:none;stroke-width:.6;stroke:#fff"/>
  <text transform="translate(3.9609 -44.473)" style="fill:#ffffff;font-family:sans-serif;font-size:9.1722px;line-height:1.25;shape-inside:url(#rect24);text-align:center;white-space:pre" xml:space="preserve"><tspan x="36.64008" y="111.53411"><tspan style="fill:#ffffff;font-size:9.1722px">8</tspan></tspan></text>
  <rect x="49.893" y="57.301" width="12.851" height="12.851" style="fill:none;stroke-width:.6;stroke:#fff"/>
  <text transform="translate(16.812 -44.473)" style="fill:#ffffff;font-family:sans-serif;font-size:9.1722px;line-height:1.25;shape-inside:url(#rect32);text-align:center;white-space:pre" xml:space="preserve"><tspan x="33.724497" y="111.53411"><tspan style="fill:#ffffff;font-size:9.1722px">15</tspan></tspan></text>
  <rect x="62.744" y="57.301" width="12.851" height="12.851" style="fill:none;stroke-width:.6;stroke:#fff"/>
  <text transform="translate(29.663 -44.473)" style="fill:#ffffff;font-family:sans-serif;font-size:9.1722px;line-height:1.25;shape-inside:url(#rect40);text-align:center;white-space:pre" xml:space="preserve"><tspan x="33.724497" y="111.53411"><tspan style="fill:#ffffff;font-size:9.1722px">16</tspan></tspan></text>
  <rect x="75.595" y="57.301" width="12.851" height="12.851" style="fill:none;stroke-width:.6;stroke:#fff"/>
  <text transform="translate(42.514 -44.473)" style="fill:#ffffff;font-family:sans-serif;font-size:9.1722px;line-height:1.25;shape-inside:url(#rect48);text-align:center;white-space:pre" xml:space="preserve"><tspan x="33.724497" y="111.53411"><tspan style="fill:#ffffff;font-size:9.1722px">23</tspan></tspan></text>
  <rect x="88.446" y="57.301" width="12.851" height="12.851" style="fill:#333;stroke-width:.26458;stroke:#fff"/>
  <rect x="101.3" y="57.301" width="12.851" height="12.851" style="fill:#333;stroke-width:.26458;stroke:#fff"/>
  <rect x="114.15" y="57.301" width="12.851" height="12.851" style="fill:#333;stroke-width:.26458;stroke:#fff"/>
  <rect x="88.446" y="30.843" width="12.851" height="12.851" style="fill:none;stroke-width:.6;stroke:#fff"/>
  <text transform="translate(55.366 -70.931)" style="fill:#ffffff;font-family:sans-serif;font-size:9.1722px;line-height:1.25;shape-inside:url(#rect80);text-align:center;white-space:pre" xml:space="preserve"><tspan x="33.724497" y="111.53411"><tspan style="fill:#ffffff;font-size:9.1722px">42</tspan></tspan></text>
  <path d="m93.937 46.522h1.8709l2e-6 2e-6v6.1472h0.86862l-1.8041 1.8041-1.8041-1.8041h0.86862v-6.1472z" style="fill:#fff"/>
  <rect x="24.19" y="90.639" width="12.851" height="12.851" style="fill:none;stroke-width:.6;stroke:#fff"/>
  <text transform="translate(-8.8903 -11.135)" style="fill:#ffffff;font-family:sans-serif;font-size:9.1722px;line-height:1.25;shape-inside:url(#rect136);text-align:center;white-space:pre" xml:space="preserve"><tspan x="36.64008" y="111.53411"><tspan style="fill:#ffffff;font-size:9.1722px">4</tspan></tspan></text>
  <rect x="37.042" y="90.639" width="12.851" height="12.851" style="fill:none;stroke-width:.6;stroke:#fff"/>
  <text transform="translate(3.9609 -11.135)" style="fill:#ffffff;font-family:sans-serif;font-size:9.1722px;line-height:1.25;shape-inside:url(#rect138);text-align:center;white-space:pre" xml:space="preserve"><tspan x="36.64008" y="111.53411"><tspan style="fill:#ffffff;font-size:9.1722px">8</tspan></tspan></text>
  <rect x="49.893" y="90.639" width="12.851" height="12.851" style="fill:none;stroke-width:.6;stroke:#fff"/>
  <text transform="translate(16.812 -11.135)" style="fill:#ffffff;font-family:sans-serif;font-size:9.1722px;line-height:1.25;shape-inside:url(#rect140);text-align:center;white-space:pre" xml:space="preserve"><tspan x="33.724497" y="111.53411"><tspan style="fill:#ffffff;font-size:9.1722px">15</tspan></tspan></text>
  <rect x="62.744" y="90.639" width="12.851" height="12.851" style="fill:none;stroke-width:.6;stroke:#fff"/>
  <text transform="translate(29.663 -11.135)" style="fill:#ffffff;font-family:sans-serif;font-size:9.1722px;line-height:1.25;shape-inside:url(#rect142);text-align:center;white-space:pre" xml:space="preserve"><tspan x="33.724497" y="111.53411"><tspan style="fill:#ffffff;font-size:9.1722px">16</tspan></tspan></text>
  <rect x="75.595" y="90.639" width="12.851" height="12.851" style="fill:none;stroke-width:.6;stroke:#fff"/>
  <text transform="translate(42.514 -11.135)" style="fill:#ffffff;font-family:sans-serif;font-size:9.1722px;line-height:1.25;shape-inside:url(#rect144);text-align:center;white-space:pre" xml:space="preserve"><tspan x="33.724497" y="111.53411"><tspan style="fill:#ffffff;font-size:9.1722px">23</tspan></tspan></text>
  <rect x="88.446" y="90.639" width="12.851" height="12.851" style="fill:none;stroke-width:.6;stroke:#fff"/>
  <rect x="101.3" y="90.639" width="12.851" height="12.851" style="fill:#333;stroke-width:.26458;stroke:#fff"/>
  <rect x="114.15" y="90.639" width="12.851" height="12.851" style="fill:#333;stroke-width:.26458;stroke:#fff"/>
  <text transform="translate(55.442 -11.066)" style="fill:#ffffff;font-family:sans-serif;font-size:9.1722px;line-height:1.25;shape-inside:url(#rect152);text-align:center;white-space:pre" xml:space="preserve"><tspan x="33.724497" y="111.53411"><tspan style="fill:#ffffff;font-size:9.1722px">42</tspan></tspan></text>
  <rect x="153.31" y="57.301" width="12.851" height="12.851" style="fill:none;stroke-width:.6;stroke:#fff"/>
  <text transform="translate(120.23 -44.473)" style="fill:#ffffff;font-family:sans-serif;font-size:9.1722px;line-height:1.25;shape-inside:url(#rect240);text-align:center;white-space:pre" xml:space="preserve"><tspan x="36.64008" y="111.53411"><tspan style="fill:#ffffff;font-size:9.1722px">4</tspan></tspan></text>
  <rect x="166.16" y="57.301" width="12.851" height="12.851" style="fill:none;stroke-width:.6;stroke:#fff"/>
  <text transform="translate(133.08 -44.473)" style="fill:#ffffff;font-family:sans-serif;font-size:9.1722px;line-height:1.25;shape-inside:url(#rect242);text-align:center;white-space:pre" xml:space="preserve"><tspan x="36.64008" y="111.53411"><tspan style="fill:#ffffff;font-size:9.1722px">8</tspan></tspan></text>
  <rect x="179.01" y="57.301" width="12.851" height="12.851" style="fill:none;stroke-width:.6;stroke:#fff"/>
  <text transform="translate(145.93 -44.473)" style="fill:#ffffff;font-family:sans-serif;font-size:9.1722px;line-height:1.25;shape-inside:url(#rect244);text-align:center;white-space:pre" xml:space="preserve"><tspan x="33.724497" y="111.53411"><tspan style="fill:#ffffff;font-size:9.1722px">15</tspan></tspan></text>
  <rect x="191.86" y="57.301" width="12.851" height="12.851" style="fill:none;stroke-width:.6;stroke:#fff"/>
  <text transform="translate(158.78 -44.473)" style="fill:#ffffff;font-family:sans-serif;font-size:9.1722px;line-height:1.25;shape-inside:url(#rect246);text-align:center;white-space:pre" xml:space="preserve"><tspan x="33.724497" y="111.53411"><tspan style="fill:#ffffff;font-size:9.1722px">16</tspan></tspan></text>
  <rect x="204.71" y="57.301" width="12.851" height="12.851" style="fill:none;stroke-width:.6;stroke:#fff"/>
  <text transform="translate(171.63 -44.473)" style="fill:#ffffff;font-family:sans-serif;font-size:9.1722px;line-height:1.25;shape-inside:url(#rect248);text-align:center;white-space:pre" xml:space="preserve"><tspan x="33.724497" y="111.53411"><tspan style="fill:#ffffff;font-size:9.1722px">23</tspan></tspan></text>
  <rect x="217.56" y="57.301" width="12.851" height="12.851" style="fill:#333;stroke-width:.26458;stroke:#fff"/>
  <rect x="230.41" y="57.301" width="12.851" height="12.851" style="fill:#333;stroke-width:.26458;stroke:#fff"/>
  <rect x="243.27" y="57.301" width="12.851" height="12.851" style="fill:#333;stroke-width:.26458;stroke:#fff"/>
  <rect x="179.01" y="30.843" width="12.851" height="12.851" style="fill:none;stroke-width:.6;stroke:#fff"/>
  <text transform="translate(145.93 -70.931)" style="fill:#ffffff;font-family:sans-serif;font-size:9.1722px;line-height:1.25;shape-inside:url(#rect250);text-align:center;white-space:pre" xml:space="preserve"><tspan x="33.724497" y="111.53411"><tspan style="fill:#ffffff;font-size:9.1722px">42</tspan></tspan></text>
  <path d="m184.5 46.522h1.8709v6.1472h0.86863l-1.8041 1.8041-1.8041-1.8041h0.86862v-6.1472z" style="fill:#fff"/>
  <rect x="153.31" y="90.639" width="12.851" height="12.851" style="fill:none;stroke-width:.6;stroke:#fff"/>
  <text transform="translate(120.23 -11.135)" style="fill:#ffffff;font-family:sans-serif;font-size:9.1722px;line-height:1.25;shape-inside:url(#rect252);text-align:center;white-space:pre" xml:space="preserve"><tspan x="36.64008" y="111.53411"><tspan style="fill:#ffffff;font-size:9.1722px">4</tspan></tspan></text>
  <rect x="166.16" y="90.639" width="12.851" height="12.851" style="fill:none;stroke-width:.6;stroke:#fff"/>
  <text transform="translate(133.08 -11.135)" style="fill:#ffffff;font-family:sans-serif;font-size:9.1722px;line-height:1.25;shape-inside:url(#rect254);text-align:center;white-space:pre" xml:space="preserve"><tspan x="36.64008" y="111.53411"><tspan style="fill:#ffffff;font-size:9.1722px">8</tspan></tspan></text>
  <rect x="179.01" y="90.639" width="12.851" height="12.851" style="fill:none;stroke-width:.6;stroke:#fff"/>
  <text transform="translate(145.93 -11.135)" style="fill:#ffffff;font-family:sans-serif;font-size:9.1722px;line-height:1.25;shape-inside:url(#rect256);text-align:center;white-space:pre" xml:space="preserve"><tspan x="33.724497" y="111.53411"><tspan style="fill:#ffffff;font-size:9.1722px">15</tspan></tspan></text>
  <rect x="191.86" y="90.639" width="12.851" height="12.851" style="fill:none;stroke-width:.6;stroke:#fff"/>
  <text transform="translate(158.78 -11.135)" style="fill:#ffffff;font-family:sans-serif;font-size:9.1722px;line-height:1.25;shape-inside:url(#rect258);text-align:center;white-space:pre" xml:space="preserve"><tspan x="33.724497" y="111.53411"><tspan style="fill:#ffffff;font-size:9.1722px">16</tspan></tspan></text>
  <rect x="204.71" y="90.639" width="12.851" height="12.851" style="fill:none;stroke-width:.6;stroke:#fff"/>
  <text transform="translate(171.63 -11.135)" style="fill:#ffffff;font-family:sans-serif;font-size:9.1722px;line-height:1.25;shape-inside:url(#rect260);text-align:center;white-space:pre" xml:space="preserve"><tspan x="33.724497" y="111.53411"><tspan style="fill:#ffffff;font-size:9.1722px">23</tspan></tspan></text>
  <rect x="217.56" y="90.639" width="12.851" height="12.851" style="fill:#333;stroke-width:.26458;stroke:#fff"/>
  <rect x="230.41" y="90.639" width="12.851" height="12.851" style="fill:#333;stroke-width:.26458;stroke:#fff"/>
  <rect x="243.27" y="90.639" width="12.851" height="12.851" style="fill:#333;stroke-width:.26458;stroke:#fff"/>
  <path d="m195.22 104.02 1.0175 1.0164h-0.48995a4.7571 4.752 0 0 1-4.7569 4.7521 4.7571 4.752 0 0 1-4.7572-4.7521h0.93761a3.8196 3.8155 0 0 0 3.8195 3.8158 3.8196 3.8155 0 0 0 3.8196-3.8158h-0.60769z" style="fill:#fff"/>
  <path d="m209.24 104.17 1.0175 1.0164h-0.48995a4.7571 4.752 0 0 1-4.7569 4.7521 4.7571 4.752 0 0 1-4.7572-4.7521h0.93761a3.8196 3.8155 0 0 0 3.8195 3.8158 3.8196 3.8155 0 0 0 3.8196-3.8158h-0.60769z" style="fill:#fff"/>
  <path d="m223.53 104.17 1.0175 1.0164h-0.48995a4.7571 4.752 0 0 1-4.7569 4.7521 4.7571 4.752 0 0 1-4.7572-4.7521h0.93761a3.8196 3.8155 0 0 0 3.8195 3.8158 3.8196 3.8155 0 0 0 3.8196-3.8158h-0.60769z" style="fill:#fff"/>
  <rect x="153.31" y="143.03" width="12.851" height="12.851" style="fill:none;stroke-width:.6;stroke:#fff"/>
  <text transform="translate(120.23 41.252)" style="fill:#ffffff;font-family:sans-serif;font-size:9.1722px;line-height:1.25;shape-inside:url(#rect361);text-align:center;white-space:pre" xml:space="preserve"><tspan x="36.64008" y="111.53411"><tspan style="fill:#ffffff;font-size:9.1722px">4</tspan></tspan></text>
  <rect x="166.16" y="143.03" width="12.851" height="12.851" style="fill:none;stroke-width:.6;stroke:#fff"/>
  <text transform="translate(133.08 41.252)" style="fill:#ffffff;font-family:sans-serif;font-size:9.1722px;line-height:1.25;shape-inside:url(#rect363);text-align:center;white-space:pre" xml:space="preserve"><tspan x="36.64008" y="111.53411"><tspan style="fill:#ffffff;font-size:9.1722px">8</tspan></tspan></text>
  <rect x="179.01" y="143.03" width="12.851" height="12.851" style="fill:#333;stroke-width:.26458;stroke:#fff"/>
  <text transform="translate(158.36 41.245)" style="fill:#ffffff;font-family:sans-serif;font-size:9.1722px;line-height:1.25;shape-inside:url(#rect365);text-align:center;white-space:pre" xml:space="preserve"><tspan x="33.724497" y="111.53411"><tspan style="fill:#ffffff;font-size:9.1722px">15</tspan></tspan></text>
  <rect x="191.86" y="143.03" width="12.851" height="12.851" style="fill:none;stroke-width:.6;stroke:#fff"/>
  <text transform="translate(171.21 41.245)" style="fill:#ffffff;font-family:sans-serif;font-size:9.1722px;line-height:1.25;shape-inside:url(#rect367);text-align:center;white-space:pre" xml:space="preserve"><tspan x="33.724497" y="111.53411"><tspan style="fill:#ffffff;font-size:9.1722px">16</tspan></tspan></text>
  <rect x="204.71" y="143.03" width="12.851" height="12.851" style="fill:none;stroke-width:.6;stroke:#fff"/>
  <text transform="translate(184.06 41.245)" style="fill:#ffffff;font-family:sans-serif;font-size:9.1722px;line-height:1.25;shape-inside:url(#rect369);text-align:center;white-space:pre" xml:space="preserve"><tspan x="33.724497" y="111.53411"><tspan style="fill:#ffffff;font-size:9.1722px">23</tspan></tspan></text>
  <rect x="217.56" y="143.03" width="12.851" height="12.851" style="fill:none;stroke-width:.6;stroke:#fff"/>
  <rect x="230.41" y="143.03" width="12.851" height="12.851" style="fill:#333;stroke-width:.26458;stroke:#fff"/>
  <rect x="243.27" y="143.03" width="12.851" height="12.851" style="fill:#333;stroke-width:.26458;stroke:#fff"/>
  <rect x="179.01" y="116.57" width="12.851" height="12.851" style="fill:none;stroke-width:.6;stroke:#fff"/>
  <text transform="translate(145.93 14.794)" style="fill:#ffffff;font-family:sans-serif;font-size:9.1722px;line-height:1.25;shape-inside:url(#rect379);text-align:center;white-space:pre" xml:space="preserve"><tspan x="33.724497" y="111.53411"><tspan style="fill:#ffffff;font-size:9.1722px">42</tspan></tspan></text>
  <path d="m184.5 132.25h1.8709v6.1472h0.86863l-1.8041 1.8041-1.8041-1.8041h0.86862v-6.1472z" style="fill:#fff"/>
  <rect x="153.31" y="167.9" width="12.851" height="12.851" style="fill:none;stroke-width:.6;stroke:#fff"/>
  <text transform="translate(120.23 66.123)" style="fill:#ffffff;font-family:sans-serif;font-size:9.1722px;line-height:1.25;shape-inside:url(#rect417);text-align:center;white-space:pre" xml:space="preserve"><tspan x="36.64008" y="111.53411"><tspan style="fill:#ffffff;font-size:9.1722px">4</tspan></tspan></text>
  <rect x="166.16" y="167.9" width="12.851" height="12.851" style="fill:none;stroke-width:.6;stroke:#fff"/>
  <text transform="translate(133.08 66.123)" style="fill:#ffffff;font-family:sans-serif;font-size:9.1722px;line-height:1.25;shape-inside:url(#rect419);text-align:center;white-space:pre" xml:space="preserve"><tspan x="36.64008" y="111.53411"><tspan style="fill:#ffffff;font-size:9.1722px">8</tspan></tspan></text>
  <rect x="179.01" y="167.9" width="12.851" height="12.851" style="fill:none;stroke-width:.6;stroke:#fff"/>
  <text transform="translate(158.36 66.116)" style="fill:#ffffff;font-family:sans-serif;font-size:9.1722px;line-height:1.25;shape-inside:url(#rect421);text-align:center;white-space:pre" xml:space="preserve"><tspan x="33.724497" y="111.53411"><tspan style="fill:#ffffff;font-size:9.1722px">15</tspan></tspan></text>
  <rect x="191.86" y="167.9" width="12.851" height="12.851" style="fill:none;stroke-width:.6;stroke:#fff"/>
  <text transform="translate(171.21 66.116)" style="fill:#ffffff;font-family:sans-serif;font-size:9.1722px;line-height:1.25;shape-inside:url(#rect423);text-align:center;white-space:pre" xml:space="preserve"><tspan x="33.724497" y="111.53411"><tspan style="fill:#ffffff;font-size:9.1722px">16</tspan></tspan></text>
  <rect x="204.71" y="167.9" width="12.851" height="12.851" style="fill:none;stroke-width:.6;stroke:#fff"/>
  <text transform="translate(184.06 66.116)" style="fill:#ffffff;font-family:sans-serif;font-size:9.1722px;line-height:1.25;shape-inside:url(#rect425);text-align:center;white-space:pre" xml:space="preserve"><tspan x="33.724497" y="111.53411"><tspan style="fill:#ffffff;font-size:9.1722px">23</tspan></tspan></text>
  <rect x="217.56" y="167.9" width="12.851" height="12.851" style="fill:none;stroke-width:.6;stroke:#fff"/>
  <rect x="230.41" y="167.9" width="12.851" height="12.851" style="fill:#333;stroke-width:.26458;stroke:#fff"/>
  <rect x="243.27" y="167.9" width="12.851" height="12.851" style="fill:#333;stroke-width:.26458;stroke:#fff"/>
  <text transform="translate(146 66.192)" style="fill:#ffffff;font-family:sans-serif;font-size:9.1722px;line-height:1.25;shape-inside:url(#rect431);text-align:center;white-space:pre" xml:space="preserve"><tspan x="33.724497" y="111.53411"><tspan style="fill:#ffffff;font-size:9.1722px">42</tspan></tspan></text>
  <path d="m140.15 39.31v142.9" style="fill:none;stroke:#fff"/>
  <path d="m24.19 80.396h231.93" style="fill:none;stroke:#fff"/>
 </g>
</svg>
